<svg xmlns="http://www.w3.org/2000/svg" width="299.034" height="299.034" viewBox="0 0 299.034 299.034" fill="none">
  <path d="M 89.36 44.972 C 88.192 49.06 85.271 52.565 81.767 54.317 C 71.838 58.405 65.414 68.334 65.414 79.431 C 64.83 84.687 61.909 89.36 57.237 91.696 C 47.892 96.368 42.052 106.297 42.052 116.81 C 42.052 121.483 42.636 124.987 44.388 128.491 C 46.724 134.332 45.556 140.756 40.884 144.845 C 32.707 151.853 28.034 161.782 28.034 172.879 C 28.034 185.144 33.291 195.657 41.468 202.082 C 45.556 205.586 47.308 210.258 46.724 215.515 C 46.724 216.683 46.724 218.435 46.724 219.603 C 46.724 235.372 58.405 247.637 73.59 247.637 C 78.847 248.222 84.103 251.142 85.855 256.398 C 89.944 265.159 99.289 271 109.802 271 C 123.819 271 135.5 259.903 135.5 245.301 L 135.5 51.396 C 135.5 38.547 124.987 28.034 112.138 28.034 C 101.041 28.034 92.28 35.627 89.36 44.972 Z M 149.517 281.512 C 139.588 292.609 124.987 299.034 109.802 299.034 C 90.528 299.034 74.174 289.689 64.83 275.088 C 38.547 270.415 18.69 247.637 18.69 219.603 L 18.69 219.019 C 7.009 207.338 0 190.985 0 172.879 C 0 157.11 5.841 141.924 15.185 130.827 C 14.601 126.155 14.017 121.483 14.017 116.81 C 14.017 98.121 23.362 81.183 37.963 71.254 C 40.299 54.317 50.228 39.715 64.83 31.539 C 72.422 12.849 90.528 0 112.138 0 C 126.739 0 140.172 6.425 149.517 16.353 C 158.862 6.425 171.711 0 186.896 0 C 207.922 0 226.028 12.849 233.62 31.539 C 248.222 39.715 258.15 54.317 260.487 71.254 C 275.088 81.183 285.017 98.121 285.017 116.81 C 285.017 121.483 284.433 126.155 283.265 130.827 C 292.609 141.924 299.034 157.11 299.034 172.879 C 299.034 190.985 291.441 207.338 280.344 219.019 L 280.344 219.603 C 280.344 247.637 259.903 270.415 233.62 275.088 C 224.275 289.689 207.922 299.034 189.232 299.034 C 173.463 299.034 158.862 292.609 149.517 281.512 Z M 163.534 245.301 C 163.534 259.903 174.631 271 189.232 271 C 199.161 271 208.506 265.159 212.594 256.398 C 214.347 251.142 219.603 248.222 224.859 247.637 C 240.045 247.637 252.31 235.372 252.31 219.603 C 252.31 218.435 251.726 216.683 251.726 215.515 C 251.142 210.258 252.894 205.586 256.982 202.082 C 265.159 195.657 271 185.144 271 172.879 C 271 161.782 265.743 151.853 257.566 144.845 C 252.894 140.756 251.726 134.332 254.062 128.491 C 255.814 124.987 256.982 121.483 256.982 116.81 C 256.982 106.297 250.558 96.368 241.213 91.696 C 236.541 89.36 233.62 84.687 233.62 79.431 C 233.036 68.334 226.612 58.405 216.683 54.317 C 213.178 52.565 210.258 49.06 209.09 44.972 C 206.17 35.627 197.409 28.034 186.896 28.034 C 173.463 28.034 163.534 38.547 163.534 51.396 L 163.534 245.301 Z" fill="currentColor" fill-rule="nonzero"/>
</svg>
